<svg width="1440" height="283" viewBox="0 0 1440 283" fill="none" xmlns="http://www.w3.org/2000/svg">
<path d="M1379.34 294.514C1364.34 318.446 1347.34 315.953 1293.34 300.497C1239.34 285.041 1199.84 225.71 1213.84 172.362C1220.49 147.01 1244.3 126.502 1268.5 112.113M1379.34 294.514C1386.68 295.179 1403.04 295.012 1409.84 289.029C1418.34 281.551 1459.34 234.186 1428.84 156.407C1398.34 78.6284 1358.34 80.1241 1313.34 91.5915C1304.11 94.5531 1291.59 99.5943 1278.5 106.508M1379.34 294.514L1358.84 292.021" stroke="#EDF0EF" stroke-width="3" stroke-linecap="round"/>
<path d="M1356.84 104.056C1364.18 105.884 1381.04 112.033 1389.84 122.005" stroke="#EDF0EF" stroke-width="3" stroke-linecap="round"/>
<path d="M1314.34 108.543C1311.52 112.476 1305.31 118.974 1296.34 124.682M1270.84 134.968C1276.06 133.964 1280.91 132.4 1285.34 130.502M1285.34 130.502C1271.01 115.87 1242.34 81.62 1242.34 61.6768C1255.94 60.8791 1259.68 65.6654 1259.84 68.1583C1259.21 71.1299 1259.04 75.2611 1259.84 80.0835M1285.34 130.502C1289.36 128.781 1293.04 126.785 1296.34 124.682M1296.34 124.682C1273.25 112.073 1264.63 99.3367 1261.5 86.8353M1259.84 80.0835C1263.51 80.5957 1273.24 79.6257 1282.84 71.6484C1294.84 61.6768 1286.84 14.8103 1355.34 33.2577C1355.34 57.9873 1309.83 72.7089 1286.5 75.8666C1282.16 79.5881 1270.89 87.7898 1261.5 86.8353M1259.84 80.0835C1260.03 81.2239 1261.2 85.6239 1261.5 86.8353" stroke="#EDF0EF" stroke-width="3" stroke-linecap="round"/>
<path d="M1291.34 68.1582C1296.84 57.688 1315.04 37.1465 1343.84 38.742" stroke="#EDF0EF" stroke-width="3" stroke-linecap="round"/>
<path d="M2.41006 27.1237C6.51416 22.5321 11.9267 19.1558 18.5936 17.6125C33.6594 12.3148 54.6797 25.4727 69.0825 38.8689C87.7821 56.2617 93.3237 65.3981 131.179 91.831C189.196 132.342 221.945 168.928 220.067 210.996C218.847 238.317 198.236 276.083 164.56 288.514M2.41006 27.1237C-7.4601 38.1661 -9.76275 56.2371 -3.74707 72.7436C4.77 96.1138 27.0358 134.403 30.1756 155.035C33.3153 175.668 28.8797 241.859 99.6087 280.876C124.402 294.553 146.384 295.224 164.56 288.514M2.41006 27.1237C-3.6443 33.8988 -17.1157 52.2152 -22.5663 71.2802C-29.3795 95.1114 -3.63815 132.042 -1.64867 153.132C0.340816 174.223 -17.6498 223.279 31.9869 269.712C81.6237 316.146 126.872 304.373 164.56 288.514" stroke="#EDF0EF" stroke-width="3" stroke-linejoin="round"/>
<path d="M6.40259 81.2462C-1.22909 60.2533 1.84129 29.4543 22.2277 24.7173C35.7589 19.947 58.896 38.7326 71.8192 50.7597C88.598 66.375 93.5675 74.5806 127.54 98.3057C179.606 134.667 213.388 168.17 211.673 205.97C209.958 243.771 170.547 307.176 107.065 272.166C43.5841 237.156 39.6114 173.701 36.8062 155.165C34.001 136.628 14.0343 102.239 6.40259 81.2462Z" stroke="#EDF0EF" stroke-width="3" stroke-linejoin="round"/>
<path d="M97.292 203.038C77.5353 179.734 85.1307 149.375 92.8817 137.805C120.166 128.955 137.316 138.38 157.402 163.056C177.488 187.731 175.454 211.011 154.468 224.92C133.482 238.829 117.049 226.341 97.292 203.038Z" stroke="#EDF0EF" stroke-width="3" stroke-linecap="round" stroke-linejoin="round"/>
<path d="M95.0351 157.299C92.9348 164.186 91.4992 181.303 102.559 194.682" stroke="#EDF0EF" stroke-width="3" stroke-linecap="round" stroke-linejoin="round"/>
<path d="M128.838 218.499C131.604 221.959 141.681 227.249 159.855 220.727" stroke="#EDF0EF" stroke-width="3" stroke-linecap="round" stroke-linejoin="round"/>
</svg>
